<svg xmlns="http://www.w3.org/2000/svg" version="1.0" viewBox="0 0 1850 520">
  <defs/>
  <path d="M183 510c-42-10-63-27-56-46 6-17 33-18 67-3 33 15 72 4 107-31 55-54 29-148-46-169-65-17-135 29-135 90 0 19-5 29-15 29-8 0-15 7-15 15s-4 15-10 15c-5 0-10-7-10-15 0-10-11-15-35-15-19 0-35-4-35-10 0-5 16-77 36-161C75 44 90 18 151 6c37-7 49-1 49 25 0 12-7 19-19 19-42 0-61 32-91 150-36 139-37 158-7 100 30-61 76-90 142-90s112 29 142 89l23 45 11-32c6-18 13-32 16-32 16 0 30 38 26 66-7 44 21 92 64 110 99 42 188-70 125-155-24-33-28-56-10-67 15-9 78 60 78 86 0 11 4 20 9 20 8 0-49-246-63-268-4-6-22-14-41-18-25-4-35-12-35-25 0-10 4-21 10-24 18-11 90 16 106 40 17 26 83 274 84 313 0 18-5 22-34 22s-34 4-39 29c-8 39-60 88-108 101-76 21-166-25-189-96l-12-36-18 39c-19 43-72 93-98 93l-37 4c-11 3-35 1-52-4zM910 366V220h73c82 0 116 14 135 54 35 73-18 136-115 136h-52l-3 47c-2 36-7 49-20 51-17 3-18-9-18-142zm159-22c17-21 19-30 9-48-16-31-27-36-80-36h-48v110h49c41 0 53-4 70-26zM1180 365c0-138 1-145 20-145s20 7 20 145-1 145-20 145-20-7-20-145zM1295 498c-3-8-4-72-3-144 3-120 4-129 23-132 15-2 40 23 100 99l80 102 5-99c4-84 8-99 23-102 16-3 17 9 17 142 0 183-4 185-115 42l-80-103-5 101c-4 86-8 101-23 104-9 2-19-3-22-10zM1615 498c-3-8-4-72-3-144 3-121 4-129 23-129 18 0 21 8 25 73l5 73 75-76c41-41 80-75 87-75 31 0 21 26-27 75-59 60-61 47 12 136 21 25 38 53 38 62 0 35-36 14-86-48l-51-64-26 27c-15 16-27 42-29 62-3 36-33 55-43 28z"/>
  <path d="M89 450c-14-15-14-18 0-36 16-19 16-19 38 4 12 12 17 22 11 22s-16 6-22 14c-9 11-14 10-27-4zM428 268c-14-14-15-19-4-25 7-4 15-13 17-20 3-8 11-4 24 11l20 23-20 14c-18 14-22 13-37-3zM577 251c-3-12-15-25-26-28-12-3-21-9-21-13s9-10 21-13c11-3 23-15 26-27l6-21 14 21c8 12 25 25 37 30 21 8 20 8-5 20-15 7-31 22-36 33-10 21-10 21-16-2z"/>
  <path d="M493 240c-17-27-1-33 37-14 24 12 29 19 19 25-23 14-43 10-56-11zM1190 165c0-9-10-19-22-24l-22-8 22-12c12-6 22-18 22-26s5-15 10-15c6 0 10 7 10 15s10 20 22 26l22 12-22 8c-12 5-22 15-22 24 0 8-4 15-10 15-5 0-10-7-10-15z"/>
</svg>
