<svg xmlns="http://www.w3.org/2000/svg" version="1.0" viewBox="0 0 1730 840"> <title>Логотип компании Mishka</title> <g fill="#000000"> <path d="M1339 809c-18-26-19-33-8-40 21-13 25-11 44 17 16 25 14 54-4 54-5 0-20-14-32-31zM1380 775c-13-15-7-45 8-45 16 0 34 29 28 45-7 19-20 19-36 0zM340 756l10-31c10-25 9-26-17-21-16 4-42 2-60-3-26-8-35-6-49 10-17 19-44 26-44 11 0-5 9-17 20-27 14-13 17-22 10-31-6-6-8-24-4-38 3-14 1-70-6-124-9-73-9-113-1-158 6-34 9-68 6-76s-24-25-46-37c-39-22-44-41-11-41 10 0 28 7 40 16 22 15 25 15 45-4 20-18 31-20 133-15l110 6-4-61c-4-57-3-61 24-79 37-24 111-24 148 0 15 10 37 34 48 53 21 36 38 44 38 19 0-21 27-19 39 3 10 16 10 16 11-1 0-31 29-31 53-1 12 15 25 35 29 43 5 9 5 0 2-19l-8-44c-2-15 34-19 38-4 16 53 17 55 27 30 12-32 39-28 41 6l1 40c-1 20 14 14 20-8 3-12 14-20 27-20s24-8 27-20c3-11 14-20 25-20 17 0 19 5 13 30-11 49 8 34 37-29 30-65 71-98 132-108 78-13 128 42 106 117-6 19-10 38-10 41 0 4 28 7 62 8 43 0 67-4 79-15 22-19 46-9 29 11-9 11-7 15 13 20 14 4 28 13 31 21 4 11 14 6 37-21 17-19 38-35 45-35 22 0 2 33-30 50-23 12-24 15-12 29 9 10 16 43 18 81 3 69 4 70 57 54 36-11 22 17-21 41-32 17-37 25-42 70-6 41-20 101-52 212-1 7-21 17-44 24-42 13-181 5-405-23-58-7-150-8-256-3l-167 7-6 29c-5 29-30 48-44 35-4-4 0-19 9-34l15-27-128 3-128 3-15 30c-9 16-22 29-30 29s-15-2-15-4zm417-593c-4-3-10-3-14 0-3 4 0 7 7 7s10-3 7-7z" /> <path d="M690 741c0-11 26-22 34-14 3 3 3 10 0 14-7 12-34 11-34 0zM1632 528c5-15 87-18 91-3 1 6-20 11-47 13-36 2-47 0-44-10zM12 518c5-15 58-30 78-22 12 4 12 8-4 20-24 17-79 19-74 2zM355 160c3-5 13-10 21-10s12 5 9 10c-3 6-13 10-21 10s-12-4-9-10zM1420 141c0-15 28-33 40-26 8 5 8 11-1 21-13 15-39 19-39 5zM243 124c-7-18 11-39 26-30 17 11 13 46-4 46-9 0-18-7-22-16z" /> </g> <g fill="#ffffff"> <path d="M475 598c-3-7-6-44-7-83l-3-70-14 45c-7 25-18 48-25 52-19 13-36 9-36-9-1-10-9-34-20-53l-19-35-1 73c0 69-1 72-23 72-24 0-24-2-30-142-6-129-5-144 11-156 14-11 20-10 34 8 9 11 27 47 40 80 12 33 26 60 30 60s18-35 31-77c19-63 28-79 45-81 21-3 22 1 23 60l5 152c3 85-4 116-28 116-5 0-11-6-13-12zM668 597c-16-16-13-76 3-78 29-5 34-2 34 26 0 27 4 30 33 33l32 3v-55c0-80-4-86-59-86-26 0-52-5-59-12-18-18-15-123 4-139 22-18 120-25 139-9 21 17 19 37-4 43-11 2-26-3-35-15-10-11-26-18-39-16-19 3-22 10-25 61l-3 57h46c65 0 85 23 85 100 0 51-3 62-23 75-36 23-110 30-129 12zM566 548c-3-29-7-91-8-138-2-75 0-85 16-88 10-2 22 0 26 5 4 4 11 63 14 130 6 115 5 123-13 132-28 16-28 16-35-41zM845 558c-3-24-5-97-3-163 3-116 4-120 26-123 21-3 22-1 22 77v81h67l-5-68c-3-55-1-70 10-75 29-11 36 10 46 138 10 140 4 175-28 175-18 0-20-6-20-69 0-75-7-86-47-76-25 6-26 8-20 65 6 52 4 61-13 70-27 15-28 14-35-32zM1046 588c-2-7-8-80-14-163-8-132-7-152 7-163 26-21 41 12 41 89 0 37 4 70 9 74 6 3 27-29 47-71 34-69 76-116 90-101 3 3-10 36-30 75-19 38-31 73-26 78 18 19 72 165 66 180-13 33-40 8-70-65l-30-74-23 29c-15 19-23 42-23 66 0 27-6 40-20 48-15 8-21 8-24-2zM1258 483c-2-59-1-119 2-132 9-36 52-63 109-69 69-6 81 5 81 79 0 46 3 59 15 59 19 0 20 19 1 26-11 4-13 18-9 58 4 41 2 56-12 70-23 23-39 16-40-20-4-108-1-101-50-102l-44-2-3 67c-3 61-5 68-25 71s-21-1-25-105zm140-120c-3-55-4-58-31-61-42-5-57 13-57 69v49h91l-3-57zM550 256c0-22 6-36 16-40 24-9 34 2 34 40 0 30-3 34-25 34s-25-4-25-34z" /> </g> </svg>